<svg xmlns="http://www.w3.org/2000/svg" xmlns:xlink="http://www.w3.org/1999/xlink" width="50" height="50" viewBox="0 0 50 50">
  <defs>
    <clipPath id="clip-path">
      <rect id="Rectangle_197" data-name="Rectangle 197" width="50" height="50" transform="translate(1019.657 625.657)" stroke="#707070" stroke-width="1"/>
    </clipPath>
  </defs>
  <g id="Mask_Group_46" data-name="Mask Group 46" transform="translate(-1019.657 -625.657)" clip-path="url(#clip-path)">
    <path id="suitcase" d="M46.9,7.4H36.2V4.114A4.119,4.119,0,0,0,32.087,0H17.278a4.119,4.119,0,0,0-4.114,4.114V7.4H2.468A2.468,2.468,0,0,0,0,9.873V28.187A2.479,2.479,0,0,0,1.645,30.51V41.96a2.468,2.468,0,0,0,2.468,2.468H45.251a2.468,2.468,0,0,0,2.468-2.468V30.51a2.48,2.48,0,0,0,1.645-2.324V9.873A2.468,2.468,0,0,0,46.9,7.4ZM14.809,4.114a2.468,2.468,0,0,1,2.468-2.468H32.087a2.468,2.468,0,0,1,2.468,2.468V7.4H32.91V4.114a.823.823,0,0,0-.823-.823H17.278a.823.823,0,0,0-.823.823V7.4H14.809ZM31.264,7.4H18.1V4.936H31.264ZM46.073,41.96a.823.823,0,0,1-.823.823H4.114a.823.823,0,0,1-.823-.823V30.792l18.1,2.5v2.089a2.468,2.468,0,0,0,2.468,2.468H25.5a2.468,2.468,0,0,0,2.468-2.468V33.289l18.1-2.5ZM26.328,35.378a.823.823,0,0,1-.823.823H23.859a.823.823,0,0,1-.823-.823V30.441a.823.823,0,0,1,.823-.823H25.5a.823.823,0,0,1,.823.823Zm21.391-7.191a.823.823,0,0,1-.707.816l-.228.031-18.81,2.594V30.441A2.468,2.468,0,0,0,25.5,27.973H23.859a2.468,2.468,0,0,0-2.468,2.468v1.186L2.354,29a.823.823,0,0,1-.708-.816V9.873a.823.823,0,0,1,.823-.823H46.9a.823.823,0,0,1,.823.823Zm0,0" transform="translate(1019.975 628.443)" stroke="#707070" stroke-width="0.117"/>
  </g>
</svg>
