<svg id="Group_210" data-name="Group 210" xmlns="http://www.w3.org/2000/svg" xmlns:xlink="http://www.w3.org/1999/xlink" width="50.771" height="54.829" viewBox="0 0 50.771 54.829">
  <defs>
    <clipPath id="clip-path">
      <rect id="Rectangle_153" data-name="Rectangle 153" width="50.771" height="54.829"/>
    </clipPath>
  </defs>
  <path id="Path_325" data-name="Path 325" d="M-482.165,242.138a4.7,4.7,0,0,0,4.343-2.821,4.476,4.476,0,0,0-1.019-4.98,4.8,4.8,0,0,0-5.123-.99,4.569,4.569,0,0,0-2.9,4.221,4.642,4.642,0,0,0,4.7,4.569Zm0-7.311a2.822,2.822,0,0,1,2.606,1.693,2.685,2.685,0,0,1-.611,2.987,2.88,2.88,0,0,1-3.073.594,2.742,2.742,0,0,1-1.742-2.533,2.782,2.782,0,0,1,2.821-2.741Zm0,0" transform="translate(507.551 -215.637)"/>
  <path id="Path_326" data-name="Path 326" d="M-572.165,293h-3.761a.928.928,0,0,0-.94.914v3.655a.928.928,0,0,0,.94.914h3.761a.928.928,0,0,0,.94-.914v-3.655a.928.928,0,0,0-.94-.914Zm-.94,3.655h-1.88v-1.828h1.88Zm0,0" transform="translate(583.448 -266.499)"/>
  <g id="Group_209" data-name="Group 209" transform="translate(0 0)">
    <g id="Group_208" data-name="Group 208" clip-path="url(#clip-path)">
      <path id="Path_327" data-name="Path 327" d="M-524.165,293h-3.761a.928.928,0,0,0-.94.914v3.655a.928.928,0,0,0,.94.914h3.761a.928.928,0,0,0,.94-.914v-3.655a.928.928,0,0,0-.94-.914Zm-.94,3.655h-1.88v-1.828h1.88Zm0,0" transform="translate(542.969 -266.499)"/>
      <path id="Path_328" data-name="Path 328" d="M-569.035,162.863h-2.576c1.9-2.9,3.517-5.994,3.517-8.224a9.886,9.886,0,0,0-2.821-6.881v-5h1.88a.945.945,0,0,0,.818-.457.931.931,0,0,0,0-.914l-3.761-6.4a.946.946,0,0,0-.818-.457h-15.053l-4.692-5.8v-1.508h7.522a.928.928,0,0,0,.828-.484.86.86,0,0,0-.047-.932l-1.533-2.239,1.533-2.239a.86.86,0,0,0,.047-.932.929.929,0,0,0-.828-.484h-7.522V119h-1.88v9.732l-4.692,5.8h-15.053a.946.946,0,0,0-.818.457l-3.761,6.4a.931.931,0,0,0,0,.914.945.945,0,0,0,.818.457h1.88v20.1h-1.88a.928.928,0,0,0-.94.914v2.741a.928.928,0,0,0,.94.914h35.991c.075.1.151.192.226.283-2.266.421-4.25,1.334-4.25,2.915,0,2.193,3.9,3.2,7.522,3.2s7.522-1.005,7.522-3.2c0-1.581-1.984-2.495-4.25-2.915.075-.091.151-.183.226-.283h5.9a.928.928,0,0,0,.94-.914v-2.741a.9.9,0,0,0-.275-.646.955.955,0,0,0-.665-.268Zm-23.505-41.122h5.764l-.9,1.325a.861.861,0,0,0,0,1.005l.9,1.325h-5.764Zm19.2,14.621,2.689,4.569h-12.025l-3.7-4.569Zm-20.422-5.483h.564l9.317,11.532a.949.949,0,0,0,.743.347H-572.8v3.463a10.589,10.589,0,0,0-10.573-.423,10,10,0,0,0-5.411,8.84c0,2.23,1.617,5.328,3.517,8.224h-3.517V152.811a.927.927,0,0,0-.94-.914h-7.522a.928.928,0,0,0-.94.914v10.052h-15.984v-20.1h10.342a.949.949,0,0,0,.743-.347Zm3.1,22.846v9.138H-596.3v-9.138Zm-25.649-12.793,2.689-4.569h13.032l-3.7,4.569Zm-.677,24.673v-.914H-584c.226.311.451.612.667.914Zm44.19,5.008c-.113.384-2.031,1.389-5.641,1.389s-5.529-1.005-5.641-1.352c.084-.283,1.288-1.005,3.723-1.27.667.795,1.128,1.306,1.212,1.4a.954.954,0,0,0,.705.309.954.954,0,0,0,.705-.309c.084-.092.545-.6,1.213-1.4,2.436.265,3.639.987,3.724,1.233Zm-5.641-1.845c-2.887-3.372-8.462-10.592-8.462-14.128a8.346,8.346,0,0,1,8.462-8.224,8.346,8.346,0,0,1,8.462,8.224c0,3.536-5.575,10.756-8.462,14.128Zm8.462-3.162h-3.563c.216-.3.441-.6.667-.914h2.9Zm0,0" transform="translate(618.866 -119)"/>
    </g>
  </g>
  <path id="Path_329" data-name="Path 329" d="M-390.866,327.569a4.569,4.569,0,0,0,2.9,4.221,4.8,4.8,0,0,0,5.123-.99,4.476,4.476,0,0,0,1.019-4.979A4.7,4.7,0,0,0-386.165,323a4.642,4.642,0,0,0-4.7,4.569Zm7.522,0a2.742,2.742,0,0,1-1.741,2.533,2.881,2.881,0,0,1-3.074-.594,2.685,2.685,0,0,1-.611-2.987,2.822,2.822,0,0,1,2.606-1.693,2.782,2.782,0,0,1,2.821,2.742Zm0,0" transform="translate(426.594 -291.93)"/>
</svg>
