<svg xmlns="http://www.w3.org/2000/svg" width="58.554" height="51.591" viewBox="0 0 58.554 51.591">
  <g id="Group_211" data-name="Group 211" transform="translate(0)">
    <path id="Path_330" data-name="Path 330" d="M-942.72,165.97h-12.912v-2.424a.977.977,0,0,0-.515-.853l-13.831-7.555v-3.847h2.736v1.462a1,1,0,0,0,1.01.981h8.248a1,1,0,0,0,1.009-.981.966.966,0,0,0-.06-.334l-.828-2.286.838-2.237a.975.975,0,0,0-.606-1.256,1.042,1.042,0,0,0-.343-.058h-3.755v-1.423a1,1,0,0,0-1.01-.981h-7.238v-1.2a1,1,0,0,0-1.01-.981,1,1,0,0,0-1.01.981v12.157l-13.831,7.545a.979.979,0,0,0-.515.854v2.424h-12.912a1,1,0,0,0-1.01.981V192.61a1,1,0,0,0,1.01.981h56.535a1,1,0,0,0,1.01-.981V166.952a1,1,0,0,0-1.01-.981Zm-19.01-15.66-.04-.039v-1.688h2.3l-.414,1.256a.956.956,0,0,0,0,.677l.474,1.256h-5.814v-.481h2.483a1,1,0,0,0,1.01-.981Zm-8.248-4.17h6.229v3.189h-6.229Zm-16.365,45.489h-11.9v-23.7h11.9Zm14.346,0h-5.3V180.423h5.3Zm7.319,0h-5.3V180.423h5.3Zm7.067,0h-5.048V179.442a1,1,0,0,0-1.01-.981h-14.638a1,1,0,0,0-1.01.981v12.186h-5.048V164.155l13.376-7.319,13.336,7.281.04,2.826Zm13.881,0h-11.9v-23.7h11.9Zm0,0" transform="translate(1000.264 -142)"/>
    <path id="Path_331" data-name="Path 331" d="M-847.175,251.078a4.181,4.181,0,0,0-4.23,4.121,4.173,4.173,0,0,0,4.24,4.1,4.172,4.172,0,0,0,4.22-4.121,4.173,4.173,0,0,0-4.23-4.1Zm0,6.26a2.179,2.179,0,0,1-2.2-2.159,2.18,2.18,0,0,1,2.2-2.139,2.19,2.19,0,0,1,2.211,2.158h.01a2.181,2.181,0,0,1-2.221,2.139Zm0,0" transform="translate(876.451 -233.24)"/>
    <rect id="Rectangle_154" data-name="Rectangle 154" width="2.019" height="3.925" transform="translate(4.452 28.091)"/>
    <rect id="Rectangle_155" data-name="Rectangle 155" width="2.019" height="3.925" transform="translate(9.429 28.091)"/>
    <rect id="Rectangle_156" data-name="Rectangle 156" width="4.038" height="1.962" transform="translate(18.969 28.091)"/>
    <rect id="Rectangle_157" data-name="Rectangle 157" width="4.038" height="1.962" transform="translate(27.258 28.091)"/>
    <rect id="Rectangle_158" data-name="Rectangle 158" width="4.038" height="1.962" transform="translate(35.546 28.091)"/>
    <rect id="Rectangle_159" data-name="Rectangle 159" width="4.038" height="1.962" transform="translate(18.969 32.664)"/>
    <rect id="Rectangle_160" data-name="Rectangle 160" width="4.038" height="1.962" transform="translate(27.258 32.664)"/>
    <rect id="Rectangle_161" data-name="Rectangle 161" width="4.038" height="1.962" transform="translate(35.546 32.664)"/>
    <rect id="Rectangle_162" data-name="Rectangle 162" width="2.019" height="3.925" transform="translate(4.452 35.814)"/>
    <rect id="Rectangle_163" data-name="Rectangle 163" width="2.019" height="3.925" transform="translate(9.429 35.814)"/>
    <rect id="Rectangle_164" data-name="Rectangle 164" width="2.019" height="3.925" transform="translate(4.452 43.545)"/>
    <rect id="Rectangle_165" data-name="Rectangle 165" width="2.019" height="3.925" transform="translate(9.429 43.545)"/>
    <rect id="Rectangle_166" data-name="Rectangle 166" width="2.019" height="3.925" transform="translate(47.105 28.091)"/>
    <rect id="Rectangle_167" data-name="Rectangle 167" width="2.019" height="3.925" transform="translate(52.082 28.091)"/>
    <rect id="Rectangle_168" data-name="Rectangle 168" width="2.019" height="3.925" transform="translate(47.105 35.814)"/>
    <rect id="Rectangle_169" data-name="Rectangle 169" width="2.019" height="3.925" transform="translate(52.082 35.814)"/>
    <rect id="Rectangle_170" data-name="Rectangle 170" width="2.019" height="3.925" transform="translate(47.105 43.545)"/>
    <rect id="Rectangle_171" data-name="Rectangle 171" width="2.019" height="3.925" transform="translate(52.082 43.545)"/>
  </g>
</svg>
