<svg id="Group_212" data-name="Group 212" xmlns="http://www.w3.org/2000/svg" width="54.158" height="52.638" viewBox="0 0 54.158 52.638">
  <path id="Path_332" data-name="Path 332" d="M-1336.463,304.141a.891.891,0,0,0,.9.877h3.611a.89.89,0,0,0,.9-.877v-5.264a.89.89,0,0,0-.9-.877h-3.611a.891.891,0,0,0-.9.877Zm1.805-4.387h1.8v3.509h-1.8Zm0,0" transform="translate(1356.321 -271.681)"/>
  <path id="Path_333" data-name="Path 333" d="M-1335.56,228.217h3.611a.89.89,0,0,0,.9-.877v-5.264a.89.89,0,0,0-.9-.878h-3.611a.891.891,0,0,0-.9.878v5.264a.891.891,0,0,0,.9.877Zm.9-5.264h1.8v3.51h-1.8Zm0,0" transform="translate(1356.321 -205.408)"/>
  <path id="Path_334" data-name="Path 334" d="M-1386.3,122.543l13.074-7.625,13.074,7.625a.919.919,0,0,0,.464.126.907.907,0,0,0,.775-.426.863.863,0,0,0-.308-1.2l-13.1-7.64v-5.644h4.513v1.755h-2.708a.89.89,0,0,0-.9.877.89.89,0,0,0,.9.877h3.611a.89.89,0,0,0,.9-.877v-3.509a.89.89,0,0,0-.9-.877h-6.319a.89.89,0,0,0-.9.877V113.4l-13.1,7.64a.863.863,0,0,0-.308,1.2.917.917,0,0,0,1.238.3Zm0,0" transform="translate(1400.302 -106)"/>
  <path id="Path_335" data-name="Path 335" d="M-1434.352,305.018a.891.891,0,0,0,.9-.877v-5.264a.891.891,0,0,0-.9-.878h-3.61a.891.891,0,0,0-.9.878v1.754a.891.891,0,0,0,.9.878.891.891,0,0,0,.9-.878v-.877h1.806v4.387a.89.89,0,0,0,.9.877Zm0,0" transform="translate(1444.281 -271.681)"/>
  <path id="Path_336" data-name="Path 336" d="M-1373.057,266.717V241.276a.891.891,0,0,0-.9-.878.891.891,0,0,0-.9.878v25.441a.891.891,0,0,0,.9.878.891.891,0,0,0,.9-.878Zm0,0" transform="translate(1389.304 -221.975)"/>
  <path id="Path_337" data-name="Path 337" d="M-1399.561,387.083h30.69a.89.89,0,0,0,.9-.877.89.89,0,0,0-.9-.877h-8.124v-8.773h.9a.891.891,0,0,0,.9-.877.891.891,0,0,0-.9-.878h-16.247a.89.89,0,0,0-.9.878.89.89,0,0,0,.9.877h.9v8.773h-8.124a.89.89,0,0,0-.9.877.89.89,0,0,0,.9.877Zm16.247-5.264a.891.891,0,0,0,.9-.877.891.891,0,0,0-.9-.878v-3.509h4.513v8.773h-4.513Zm-6.318-5.263h4.513v3.509a.891.891,0,0,0-.9.878.891.891,0,0,0,.9.877v3.51h-4.513Zm0,0" transform="translate(1411.295 -337.954)"/>
  <path id="Path_338" data-name="Path 338" d="M-1165.552,381.2h-3.61a.891.891,0,0,0-.9.877v5.264a.891.891,0,0,0,.9.877h3.61a.891.891,0,0,0,.9-.877v-5.264a.891.891,0,0,0-.9-.877Zm-.9,5.264h-1.805v-3.509h1.805Zm0,0" transform="translate(1213.392 -343.475)"/>
  <path id="Path_339" data-name="Path 339" d="M-1165.552,304.4h-3.61a.891.891,0,0,0-.9.878v5.264a.891.891,0,0,0,.9.877h3.61a.891.891,0,0,0,.9-.877v-5.264a.891.891,0,0,0-.9-.878Zm-.9,5.264h-1.805v-3.509h1.805Zm0,0" transform="translate(1213.392 -277.202)"/>
  <path id="Path_340" data-name="Path 340" d="M-1387.251,477.2h-37.91a.891.891,0,0,0-.9.877.891.891,0,0,0,.9.878h37.91a.89.89,0,0,0,.9-.877.89.89,0,0,0-.9-.878Zm0,0" transform="translate(1433.286 -426.316)"/>
  <path id="Path_341" data-name="Path 341" d="M-1171.128,246.8a.891.891,0,0,0-.9.877v.877h-9.929a.89.89,0,0,0-.9.878.89.89,0,0,0,.9.877h9.929v28.951a.891.891,0,0,0,.9.878.89.89,0,0,0,.9-.878V247.678a.89.89,0,0,0-.9-.877Zm0,0" transform="translate(1224.383 -227.5)"/>
  <path id="Path_342" data-name="Path 342" d="M-1272.463,304.141a.891.891,0,0,0,.9.877h3.611a.89.89,0,0,0,.9-.877v-5.264a.89.89,0,0,0-.9-.877h-3.611a.891.891,0,0,0-.9.877Zm1.806-4.387h1.8v3.509h-1.8Zm0,0" transform="translate(1301.348 -271.681)"/>
  <path id="Path_343" data-name="Path 343" d="M-1468.237,347.8c0-.114-.051-11.405-4.514-11.405s-4.513,11.291-4.513,11.405a4.428,4.428,0,0,0,3.611,4.3v4.475a.89.89,0,0,0,.9.877.89.89,0,0,0,.9-.877V352.1a4.428,4.428,0,0,0,3.611-4.3Zm-4.514,2.632a2.674,2.674,0,0,1-2.707-2.632c0-4.371,1.207-9.651,2.707-9.651s2.708,5.28,2.708,9.651a2.674,2.674,0,0,1-2.708,2.632Zm0,0" transform="translate(1477.264 -304.815)"/>
  <path id="Path_344" data-name="Path 344" d="M-1206.657,261.2V234.877a.891.891,0,0,0-.9-.877.89.89,0,0,0-.9.877V261.2a.89.89,0,0,0,.9.878.891.891,0,0,0,.9-.878Zm0,0" transform="translate(1246.374 -216.454)"/>
  <path id="Path_345" data-name="Path 345" d="M-1271.561,228.217h3.611a.89.89,0,0,0,.9-.877v-5.264a.89.89,0,0,0-.9-.878h-3.611a.891.891,0,0,0-.9.878v5.264a.891.891,0,0,0,.9.877Zm.9-5.264h1.8v3.51h-1.8Zm0,0" transform="translate(1301.348 -205.408)"/>
  <path id="Path_346" data-name="Path 346" d="M-1476.362,258.206a.891.891,0,0,0,.9-.877V250.31h9.929a.89.89,0,0,0,.9-.877.89.89,0,0,0-.9-.877h-9.929v-.878a.891.891,0,0,0-.9-.877.891.891,0,0,0-.9.877v9.651a.891.891,0,0,0,.9.877Zm0,0" transform="translate(1477.264 -227.5)"/>
</svg>
